<svg width="683.69375px" height="101.6px" xmlns="http://www.w3.org/2000/svg" viewBox="-91.84687500000001 24.200000000000003 683.69375 101.6" style="background: rgba(0, 0, 0, 0); --darkreader-inline-bgimage: initial; --darkreader-inline-bgcolor:rgba(0, 0, 0, 0);" data-darkreader-inline-bgimage="" data-darkreader-inline-bgcolor="" preserveAspectRatio="xMidYMid"><defs><linearGradient id="editing-outline-gradient" x1="-0.41354545764260087" x2="1.4135454576426008" y1="0.09326335692419985" y2="0.9067366430758002"><stop offset="0" stop-color="#ee4208" data-darkreader-inline-stopcolor="" style="--darkreader-inline-stopcolor:#be3506;"></stop><stop offset="1" stop-color="#4139ff" data-darkreader-inline-stopcolor="" style="--darkreader-inline-stopcolor:#0700aa;"></stop></linearGradient><filter id="editing-outline" x="-100%" y="-100%" width="300%" height="300%"><feMorphology in="SourceGraphic" operator="dilate" radius="1" result="outline"></feMorphology><feComposite operator="out" in="outline" in2="SourceAlpha"></feComposite></filter></defs><g filter="url(#editing-outline)"><g transform="translate(5.614978313446045, 91.91333389282227)"><path d="M36.26-21.85L36.26-19.14L36.26-19.14Q36.26-17.10 35.75-15.49L35.75-15.49L35.75-15.49Q35.25-13.88 34.39-12.66L34.39-12.66L34.39-12.66Q33.53-11.43 32.40-10.56L32.40-10.56L32.40-10.56Q31.28-9.68 30.05-9.13L30.05-9.13L30.05-9.13Q28.82-8.58 27.57-8.33L27.57-8.33L27.57-8.33Q26.32-8.08 25.22-8.08L25.22-8.08L11.73-8.08L11.73-14.04L25.22-14.04L25.22-14.04Q26.37-14.14 27.30-14.52L27.30-14.52L27.30-14.52Q28.23-14.89 28.89-15.54L28.89-15.54L28.89-15.54Q29.56-16.18 29.93-17.09L29.93-17.09L29.93-17.09Q30.29-17.99 30.29-19.14L30.29-19.14L30.29-21.85L30.29-21.85Q30.18-22.97 29.81-23.91L29.81-23.91L29.81-23.91Q29.44-24.85 28.81-25.52L28.81-25.52L28.81-25.52Q28.18-26.19 27.29-26.56L27.29-26.56L27.29-26.56Q26.39-26.94 25.22-26.94L25.22-26.94L11.77-26.94L11.77-26.94Q10.58-26.94 9.96-26.32L9.96-26.32L9.96-26.32Q9.34-25.70 9.34-24.53L9.34-24.53L9.34 0L3.37 0L3.37-24.53L3.37-24.53Q3.37-26.83 4.21-28.43L4.21-28.43L4.21-28.43Q5.05-30.04 6.30-31.03L6.30-31.03L6.30-31.03Q7.55-32.01 9.02-32.46L9.02-32.46L9.02-32.46Q10.49-32.91 11.73-32.91L11.73-32.91L25.22-32.91L25.22-32.91Q27.24-32.91 28.85-32.39L28.85-32.39L28.85-32.39Q30.45-31.88 31.68-31.02L31.68-31.02L31.68-31.02Q32.91-30.16 33.77-29.03L33.77-29.03L33.77-29.03Q34.63-27.91 35.19-26.68L35.19-26.68L35.19-26.68Q35.75-25.45 36.01-24.20L36.01-24.20L36.01-24.20Q36.26-22.95 36.26-21.85L36.26-21.85ZM74.24-25.66L74.24-21.85L74.24-21.85Q74.24-19.81 73.74-18.20L73.74-18.20L73.74-18.20Q73.23-16.59 72.37-15.36L72.37-15.36L72.37-15.36Q71.51-14.14 70.39-13.26L70.39-13.26L70.39-13.26Q69.26-12.39 68.03-11.83L68.03-11.83L68.03-11.83Q66.81-11.27 65.55-11.02L65.55-11.02L65.55-11.02Q64.30-10.76 63.20-10.76L63.20-10.76L75.66 0L66.44 0L54.00-10.76L49.71-10.76L49.71-16.73L63.20-16.73L63.20-16.73Q64.33-16.82 65.26-17.20L65.26-17.20L65.26-17.20Q66.19-17.58 66.86-18.22L66.86-18.22L66.86-18.22Q67.54-18.86 67.91-19.77L67.91-19.77L67.91-19.77Q68.27-20.68 68.27-21.85L68.27-21.85L68.27-25.61L68.27-25.61Q68.27-26.12 68.15-26.38L68.15-26.38L68.15-26.38Q68.02-26.64 67.83-26.77L67.83-26.77L67.83-26.77Q67.63-26.90 67.41-26.92L67.41-26.92L67.41-26.92Q67.20-26.94 67.01-26.94L67.01-26.94L47.32-26.94L47.32 0L41.35 0L41.35-29.90L41.35-29.90Q41.35-30.52 41.58-31.07L41.58-31.07L41.58-31.07Q41.81-31.62 42.22-32.04L42.22-32.04L42.22-32.04Q42.62-32.45 43.17-32.68L43.17-32.68L43.17-32.68Q43.72-32.91 44.36-32.91L44.36-32.91L67.01-32.91L67.01-32.91Q69.01-32.91 70.39-32.19L70.39-32.19L70.39-32.19Q71.76-31.46 72.62-30.37L72.62-30.37L72.62-30.37Q73.48-29.28 73.86-28.02L73.86-28.02L73.86-28.02Q74.24-26.76 74.24-25.66L74.24-25.66ZM85.21-32.91L95.26-21.16L105.31-32.91L113.46-32.91L99.30-16.41L113.37 0L105.27 0L95.26-11.66L85.30 0L77.18 0L91.22-16.41L77.13-32.91L85.21-32.91ZM150.06-19.14L150.06-13.77L150.06-13.77Q150.06-10.76 149.02-8.24L149.02-8.24L149.02-8.24Q147.98-5.71 146.14-3.89L146.14-3.89L146.14-3.89Q144.30-2.07 141.78-1.03L141.78-1.03L141.78-1.03Q139.26 0 136.30 0L136.30 0L120.19 0L120.19 0Q119.54 0 118.99-0.23L118.99-0.23L118.99-0.23Q118.44-0.46 118.04-0.86L118.04-0.86L118.04-0.86Q117.64-1.26 117.41-1.81L117.41-1.81L117.41-1.81Q117.18-2.36 117.18-3.01L117.18-3.01L117.18-29.90L117.18-29.90Q117.18-30.52 117.41-31.07L117.41-31.07L117.41-31.07Q117.64-31.62 118.04-32.04L118.04-32.04L118.04-32.04Q118.44-32.45 118.99-32.68L118.99-32.68L118.99-32.68Q119.54-32.91 120.19-32.91L120.19-32.91L136.30-32.91L136.30-32.91Q139.26-32.91 141.78-31.88L141.78-31.88L141.78-31.88Q144.30-30.84 146.14-29.02L146.14-29.02L146.14-29.02Q147.98-27.19 149.02-24.66L149.02-24.66L149.02-24.66Q150.06-22.12 150.06-19.14L150.06-19.14ZM144.10-13.77L144.10-19.14L144.10-19.14Q144.10-20.88 143.54-22.33L143.54-22.33L143.54-22.33Q142.97-23.78 141.94-24.80L141.94-24.80L141.94-24.80Q140.91-25.82 139.47-26.38L139.47-26.38L139.47-26.38Q138.04-26.94 136.30-26.94L136.30-26.94L123.15-26.94L123.15-5.97L136.30-5.97L136.30-5.97Q138.04-5.97 139.47-6.53L139.47-6.53L139.47-6.53Q140.91-7.09 141.94-8.11L141.94-8.11L141.94-8.11Q142.97-9.13 143.54-10.57L143.54-10.57L143.54-10.57Q144.10-12.00 144.10-13.77L144.10-13.77ZM188.16-32.91L188.16-3.01L188.16-3.01Q188.16-2.36 187.93-1.81L187.93-1.81L187.93-1.81Q187.70-1.26 187.29-0.86L187.29-0.86L187.29-0.86Q186.88-0.46 186.32-0.23L186.32-0.23L186.32-0.23Q185.77 0 185.15 0L185.15 0L171.71 0L171.71 0Q169.80 0 167.85-0.41L167.85-0.41L167.85-0.41Q165.90-0.83 164.08-1.69L164.08-1.69L164.08-1.69Q162.25-2.55 160.64-3.88L160.64-3.88L160.64-3.88Q159.04-5.21 157.83-7.03L157.83-7.03L157.83-7.03Q156.63-8.86 155.94-11.21L155.94-11.21L155.94-11.21Q155.25-13.56 155.25-16.45L155.25-16.45L155.25-32.91L161.22-32.91L161.22-16.45L161.22-16.45Q161.22-13.93 161.92-12.19L161.92-12.19L161.92-12.19Q162.62-10.44 163.70-9.27L163.70-9.27L163.70-9.27Q164.78-8.10 166.06-7.44L166.06-7.44L166.06-7.44Q167.35-6.77 168.50-6.45L168.50-6.45L168.50-6.45Q169.66-6.13 170.55-6.05L170.55-6.05L170.55-6.05Q171.43-5.97 171.71-5.97L171.71-5.97L182.19-5.97L182.19-32.91L188.16-32.91ZM224.56-5.97L224.56 0L203.03 0L203.03 0Q202.21 0 201.25-0.20L201.25-0.20L201.25-0.20Q200.30-0.39 199.37-0.80L199.37-0.80L199.37-0.80Q198.44-1.22 197.59-1.87L197.59-1.87L197.59-1.87Q196.74-2.52 196.09-3.45L196.09-3.45L196.09-3.45Q195.44-4.38 195.05-5.61L195.05-5.61L195.05-5.61Q194.66-6.84 194.66-8.38L194.66-8.38L194.66-24.53L194.66-24.53Q194.66-25.36 194.85-26.31L194.85-26.31L194.85-26.31Q195.05-27.26 195.46-28.19L195.46-28.19L195.46-28.19Q195.87-29.12 196.54-29.97L196.54-29.97L196.54-29.97Q197.20-30.82 198.13-31.47L198.13-31.47L198.13-31.47Q199.06-32.13 200.28-32.52L200.28-32.52L200.28-32.52Q201.49-32.91 203.03-32.91L203.03-32.91L224.56-32.91L224.56-26.94L203.03-26.94L203.03-26.94Q201.86-26.94 201.24-26.32L201.24-26.32L201.24-26.32Q200.62-25.70 200.62-24.49L200.62-24.49L200.62-8.38L200.62-8.38Q200.62-7.23 201.25-6.60L201.25-6.60L201.25-6.60Q201.88-5.97 203.03-5.97L203.03-5.97L224.56-5.97ZM257.26-19.46L257.26-13.45L238.42-13.45L238.42-19.46L257.26-19.46ZM259.95-5.97L259.95 0L238.42 0L238.42 0Q237.18 0 235.71-0.44L235.71-0.44L235.71-0.44Q234.24-0.87 232.99-1.87L232.99-1.87L232.99-1.87Q231.74-2.87 230.90-4.46L230.90-4.46L230.90-4.46Q230.07-6.06 230.07-8.38L230.07-8.38L230.07-29.90L230.07-29.90Q230.07-30.52 230.30-31.07L230.30-31.07L230.30-31.07Q230.52-31.62 230.93-32.04L230.93-32.04L230.93-32.04Q231.33-32.45 231.88-32.68L231.88-32.68L231.88-32.68Q232.43-32.91 233.07-32.91L233.07-32.91L259.95-32.91L259.95-26.94L236.03-26.94L236.03-8.38L236.03-8.38Q236.03-7.21 236.65-6.59L236.65-6.59L236.65-6.59Q237.27-5.97 238.47-5.97L238.47-5.97L259.95-5.97ZM298.59-25.66L298.59-21.85L298.59-21.85Q298.59-19.81 298.09-18.20L298.09-18.20L298.09-18.20Q297.58-16.59 296.72-15.36L296.72-15.36L296.72-15.36Q295.86-14.14 294.74-13.26L294.74-13.26L294.74-13.26Q293.61-12.39 292.38-11.83L292.38-11.83L292.38-11.83Q291.16-11.27 289.91-11.02L289.91-11.02L289.91-11.02Q288.66-10.76 287.55-10.76L287.55-10.76L300.02 0L290.79 0L278.35-10.76L274.06-10.76L274.06-16.73L287.55-16.73L287.55-16.73Q288.68-16.82 289.61-17.20L289.61-17.20L289.61-17.20Q290.54-17.58 291.21-18.22L291.21-18.22L291.21-18.22Q291.89-18.86 292.26-19.77L292.26-19.77L292.26-19.77Q292.63-20.68 292.63-21.85L292.63-21.85L292.63-25.61L292.63-25.61Q292.63-26.12 292.50-26.38L292.50-26.38L292.50-26.38Q292.37-26.64 292.18-26.77L292.18-26.77L292.18-26.77Q291.98-26.90 291.76-26.92L291.76-26.92L291.76-26.92Q291.55-26.94 291.36-26.94L291.36-26.94L271.67-26.94L271.67 0L265.71 0L265.71-29.90L265.71-29.90Q265.71-30.52 265.94-31.07L265.94-31.07L265.94-31.07Q266.17-31.62 266.57-32.04L266.57-32.04L266.57-32.04Q266.97-32.45 267.52-32.68L267.52-32.68L267.52-32.68Q268.07-32.91 268.71-32.91L268.71-32.91L291.36-32.91L291.36-32.91Q293.36-32.91 294.74-32.19L294.74-32.19L294.74-32.19Q296.11-31.46 296.97-30.37L296.97-30.37L296.97-30.37Q297.83-29.28 298.21-28.02L298.21-28.02L298.21-28.02Q298.59-26.76 298.59-25.66L298.59-25.66ZM332.74-31.12L332.74-31.12L332.74-31.12Q333.08-30.32 332.95-29.43L332.95-29.43L332.95-29.43Q332.81-28.55 332.21-27.93L332.21-27.93L312.52-5.97L332.69-5.97L332.69 0L305.80 0L305.80 0Q304.93 0 304.18-0.49L304.18-0.49L304.18-0.49Q303.43-0.99 303.07-1.79L303.07-1.79L303.07-1.79Q302.68-2.59 302.83-3.47L302.83-3.47L302.83-3.47Q302.98-4.34 303.55-4.98L303.55-4.98L323.29-26.94L303.07-26.94L303.07-32.91L330.01-32.91L330.01-32.91Q330.88-32.91 331.63-32.42L331.63-32.42L331.63-32.42Q332.37-31.92 332.74-31.12ZM370.58-16.45L370.58-3.01L370.58-3.01Q370.58-2.36 370.35-1.81L370.35-1.81L370.35-1.81Q370.13-1.26 369.72-0.86L369.72-0.86L369.72-0.86Q369.32-0.46 368.77-0.23L368.77-0.23L368.77-0.23Q368.22 0 367.58 0L367.58 0L346.05 0L346.05 0Q345.23 0 344.27-0.20L344.27-0.20L344.27-0.20Q343.32-0.39 342.39-0.80L342.39-0.80L342.39-0.80Q341.46-1.22 340.61-1.87L340.61-1.87L340.61-1.87Q339.76-2.52 339.11-3.45L339.11-3.45L339.11-3.45Q338.46-4.38 338.06-5.61L338.06-5.61L338.06-5.61Q337.67-6.84 337.67-8.38L337.67-8.38L337.67-24.53L337.67-24.53Q337.67-25.36 337.87-26.31L337.87-26.31L337.87-26.31Q338.06-27.26 338.48-28.19L338.48-28.19L338.48-28.19Q338.89-29.12 339.56-29.97L339.56-29.97L339.56-29.97Q340.22-30.82 341.15-31.47L341.15-31.47L341.15-31.47Q342.08-32.13 343.30-32.52L343.30-32.52L343.30-32.52Q344.51-32.91 346.05-32.91L346.05-32.91L370.31-32.91L370.31-26.94L346.05-26.94L346.05-26.94Q344.88-26.94 344.26-26.32L344.26-26.32L344.26-26.32Q343.64-25.70 343.64-24.49L343.64-24.49L343.64-8.38L343.64-8.38Q343.64-7.23 344.27-6.60L344.27-6.60L344.27-6.60Q344.90-5.97 346.05-5.97L346.05-5.97L364.62-5.97L364.62-13.45L348.74-13.45L348.74-19.46L367.58-19.46L367.58-19.46Q368.22-19.46 368.77-19.22L368.77-19.22L368.77-19.22Q369.32-18.98 369.72-18.57L369.72-18.57L369.72-18.57Q370.13-18.15 370.35-17.61L370.35-17.61L370.35-17.61Q370.58-17.07 370.58-16.45L370.58-16.45ZM403.08-32.91L409.74-32.91L394.15-1.17L394.15-1.17Q393.79-0.44 393.06 0.01L393.06 0.01L393.06 0.01Q392.34 0.46 391.47 0.46L391.47 0.46L391.47 0.46Q390.62 0.46 389.90 0.01L389.90 0.01L389.90 0.01Q389.17-0.44 388.78-1.17L388.78-1.17L373.22-32.91L379.90-32.91L391.47-9.20L403.08-32.91ZM446.00-32.91L446.00-2.55L446.00-2.55Q446.00-1.90 445.75-1.35L445.75-1.35L445.75-1.35Q445.51-0.80 445.11-0.40L445.11-0.40L445.11-0.40Q444.71 0 444.16 0.23L444.16 0.23L444.16 0.23Q443.61 0.46 442.99 0.46L442.99 0.46L442.99 0.46Q442.44 0.46 441.88 0.25L441.88 0.25L441.88 0.25Q441.31 0.05 440.88-0.41L440.88-0.41L419.08-23.18L419.08 0L413.11 0L413.11-30.36L413.11-30.36Q413.11-31.28 413.63-32.03L413.63-32.03L413.63-32.03Q414.14-32.77 414.94-33.14L414.94-33.14L414.94-33.14Q415.79-33.48 416.69-33.31L416.69-33.31L416.69-33.31Q417.58-33.14 418.23-32.47L418.23-32.47L440.03-9.73L440.03-32.91L446.00-32.91ZM485.40-16.45L485.40-3.01L485.40-3.01Q485.40-2.36 485.17-1.81L485.17-1.81L485.17-1.81Q484.94-1.26 484.54-0.86L484.54-0.86L484.54-0.86Q484.14-0.46 483.59-0.23L483.59-0.23L483.59-0.23Q483.04 0 482.39 0L482.39 0L460.87 0L460.87 0Q460.04 0 459.09-0.20L459.09-0.20L459.09-0.20Q458.14-0.39 457.21-0.80L457.21-0.80L457.21-0.80Q456.28-1.22 455.43-1.87L455.43-1.87L455.43-1.87Q454.58-2.52 453.92-3.45L453.92-3.45L453.92-3.45Q453.27-4.38 452.88-5.61L452.88-5.61L452.88-5.61Q452.49-6.84 452.49-8.38L452.49-8.38L452.49-24.53L452.49-24.53Q452.49-25.36 452.68-26.31L452.68-26.31L452.68-26.31Q452.88-27.26 453.29-28.19L453.29-28.19L453.29-28.19Q453.71-29.12 454.37-29.97L454.37-29.97L454.37-29.97Q455.04-30.82 455.97-31.47L455.97-31.47L455.97-31.47Q456.90-32.13 458.11-32.52L458.11-32.52L458.11-32.52Q459.33-32.91 460.87-32.91L460.87-32.91L485.12-32.91L485.12-26.94L460.87-26.94L460.87-26.94Q459.70-26.94 459.08-26.32L459.08-26.32L459.08-26.32Q458.46-25.70 458.46-24.49L458.46-24.49L458.46-8.38L458.46-8.38Q458.46-7.23 459.09-6.60L459.09-6.60L459.09-6.60Q459.72-5.97 460.87-5.97L460.87-5.97L479.43-5.97L479.43-13.45L463.55-13.45L463.55-19.46L482.39-19.46L482.39-19.46Q483.04-19.46 483.59-19.22L483.59-19.22L483.59-19.22Q484.14-18.98 484.54-18.57L484.54-18.57L484.54-18.57Q484.94-18.15 485.17-17.61L485.17-17.61L485.17-17.61Q485.40-17.07 485.40-16.45L485.40-16.45Z" fill="url(#editing-outline-gradient)"></path></g></g><style>text {
  font-size: 64px;
  font-family: Arial Black;
  dominant-baseline: central;
  text-anchor: middle;
}</style><style class="darkreader darkreader--sync" media="screen"></style></svg>